<svg width="378" height="260" viewBox="0 0 378 260" fill="none" xmlns="http://www.w3.org/2000/svg">
<path d="M203.001 5.00034C199.538 -18.5685 142.501 61.0005 106.5 36.0001C70.5001 10.9997 86.0004 54.9998 86.0004 54.9998C86.0004 54.9998 78.5004 68.9998 64.0004 54.9998C49.5004 40.9998 29.0005 43.4998 37.5005 59.4998C46.0005 75.4998 96.0004 58.0004 86.0004 101C76.0004 144 68.5005 101 13.0004 122C-42.4995 143 117 131.5 70.5001 170.5C23.9998 209.5 132.793 274.512 117 209C101.208 143.489 189.001 179.999 242.001 239C295 298 258 207.5 269.001 189C280.001 170.5 326.5 246 359 242C391.501 238.001 319.683 220.359 370 194C420.318 167.642 188.001 169.501 210.001 144C232 118.5 158.5 75.4998 260.5 122C362.501 168.501 345 113 291 112.5C237 112 344.953 80.5544 269.001 69.4998C193.048 58.4453 288.673 46.1737 283 36.0004C277.327 25.827 269.001 -8.00018 242.001 23.4998C215 54.9998 206.463 28.5692 203.001 5.00034Z" fill="#5CCAE6" stroke="black"/>
</svg>
